<svg xmlns="http://www.w3.org/2000/svg" height="24" viewBox="0 -960 960 960" width="24" stroke="currentColor" fill="currentColor"><path d="M355.077-140.001H200q-24.922 0-42.461-17.538-17.538-17.539-17.538-42.461v-155.077q41.077-5.001 70.538-34.154Q240-418.385 240-460q0-41.615-29.461-70.769-29.461-29.153-70.538-34.154V-720q0-24.922 17.538-42.461 17.539-17.538 42.461-17.538h160q5.385-38.153 33.423-62.922Q421.462-867.69 460-867.69t66.577 24.769q28.038 24.769 33.423 62.922h160q24.922 0 42.461 17.538 17.538 17.539 17.538 42.461v160q38.153 5.385 62.922 33.423Q867.69-498.538 867.69-460t-24.769 66.577Q818.152-365.385 779.999-360v160q0 24.922-17.538 42.461-17.539 17.538-42.461 17.538H564.923q-5.385-43.077-35.154-71.538Q500-240 460-240q-40 0-69.769 28.461-29.769 28.461-35.154 71.538ZM200-200h108.463q20.538-52.922 64.884-76.46 44.346-23.539 86.653-23.539 42.307 0 86.653 23.539 44.346 23.538 64.884 76.46H720v-217.691h49.229q18.385-2.308 28.424-14.846 10.038-12.539 10.038-27.463 0-14.924-10.038-27.463-10.039-12.538-28.424-14.846H720V-720H502.309v-49.229q-2.308-18.385-14.846-28.424-12.539-10.038-27.463-10.038-14.924 0-27.463 10.038-12.538 10.039-14.846 28.424V-720H200v109.54q45.538 18.846 72.768 59.884 27.231 41.038 27.231 90.576 0 48.922-27.231 89.961-27.23 41.038-72.768 60.499V-200Zm260-260Z"></path></svg>